<?xml version="1.0" encoding="UTF-8" standalone="no"?>
<!-- Created with Inkscape (http://www.inkscape.org/) -->

<svg
   xmlns:dc="http://purl.org/dc/elements/1.1/"
   xmlns:cc="http://creativecommons.org/ns#"
   xmlns:rdf="http://www.w3.org/1999/02/22-rdf-syntax-ns#"
   xmlns:svg="http://www.w3.org/2000/svg"
   xmlns="http://www.w3.org/2000/svg"
   xmlns:sodipodi="http://sodipodi.sourceforge.net/DTD/sodipodi-0.dtd"
   xmlns:inkscape="http://www.inkscape.org/namespaces/inkscape"
   width="400mm"
   height="400mm"
   viewBox="0 0 1417.3228 1417.3228"
   id="svg13725"
   version="1.1"
   inkscape:version="0.91 r13725"
   sodipodi:docname="block_sync.svg">
  <defs
     id="defs13727" />
  <sodipodi:namedview
     id="base"
     pagecolor="#ffffff"
     bordercolor="#666666"
     borderopacity="1.0"
     inkscape:pageopacity="0.0"
     inkscape:pageshadow="2"
     inkscape:zoom="0.49497475"
     inkscape:cx="374.23264"
     inkscape:cy="922.39654"
     inkscape:document-units="px"
     inkscape:current-layer="layer1"
     showgrid="true"
     inkscape:window-width="1301"
     inkscape:window-height="744"
     inkscape:window-x="65"
     inkscape:window-y="24"
     inkscape:window-maximized="1">
    <inkscape:grid
       type="xygrid"
       id="grid13733" />
  </sodipodi:namedview>
  <metadata
     id="metadata13730">
    <rdf:RDF>
      <cc:Work
         rdf:about="">
        <dc:format>image/svg+xml</dc:format>
        <dc:type
           rdf:resource="http://purl.org/dc/dcmitype/StillImage" />
        <dc:title></dc:title>
      </cc:Work>
    </rdf:RDF>
  </metadata>
  <g
     inkscape:label="Layer 1"
     inkscape:groupmode="layer"
     id="layer1"
     transform="translate(0,364.96063)">
    <path
       style="fill:none;fill-rule:evenodd;stroke:#000000;stroke-width:10.46915627;stroke-linecap:butt;stroke-linejoin:miter;stroke-miterlimit:4;stroke-dasharray:none;stroke-opacity:1"
       d="m 558.80281,37.582167 -92.89459,-95.4648 -2.31249,312.083973 -2.3125,312.08592 97.51958,-85.29105 0,-443.414043 z"
       id="path3338-3-2"
       inkscape:connector-curvature="0" />
    <path
       style="fill:none;stroke:#000000;stroke-width:6.85855389;stroke-miterlimit:4;stroke-dasharray:none;stroke-dashoffset:0;stroke-opacity:1"
       d="m 883.87591,159.21089 a 69.457322,94.104633 0 0 0 -69.45646,94.10616 69.457322,94.104633 0 0 0 0.13597,5.20956 l 3.79071,0 a 68.754164,32.958192 0 0 1 65.31758,-22.74109 68.754164,32.958192 0 0 1 65.27844,22.74109 l 4.20068,0 a 69.457322,94.104633 0 0 0 0.19159,-5.20956 69.457322,94.104633 0 0 0 -69.45851,-94.10616 z m -0.37495,95.42967 a 82.803143,62.834124 0 0 0 -62.70117,21.84019 100.93954,90.507458 0 0 1 62.52193,-19.4632 100.93954,90.507458 0 0 1 64.43996,20.88361 82.803143,62.834124 0 0 0 -64.26072,-23.2606 z"
       id="path7873-6"
       inkscape:connector-curvature="0" />
    <path
       style="fill:none;stroke:#000000;stroke-width:6.99999905;stroke-miterlimit:4;stroke-dasharray:none;stroke-dashoffset:0;stroke-opacity:1"
       d="m 810,406.36164 0,95.66211 A 70.681307,31.593443 0 0 1 874.15625,483.59406 70.681307,31.593443 0 0 1 940,503.80695 l 0,-97.44531 -130,0 z"
       id="path7873-6-0"
       inkscape:connector-curvature="0" />
  </g>
</svg>
